<svg width="544" height="152" viewBox="0 0 544 152" fill="none" xmlns="http://www.w3.org/2000/svg">
<path d="M56.352 38.32V53.296H38.304V106H19.488V53.296H1.632V38.32H56.352ZM118.418 52.144V106H99.5055V98.32C97.9055 100.752 95.6975 102.736 92.8815 104.272C90.0655 105.744 86.8335 106.48 83.1855 106.48C76.9135 106.48 71.9535 104.432 68.3055 100.336C64.7215 96.176 62.9295 90.544 62.9295 83.44V52.144H81.6495V81.04C81.6495 84.112 82.4495 86.544 84.0495 88.336C85.7135 90.064 87.8895 90.928 90.5775 90.928C93.3295 90.928 95.5055 90.064 97.1055 88.336C98.7055 86.544 99.5055 84.112 99.5055 81.04V52.144H118.418ZM147.942 59.632C149.414 57.072 151.494 55.088 154.182 53.68C156.87 52.208 160.038 51.472 163.686 51.472C167.974 51.472 171.846 52.592 175.302 54.832C178.822 57.072 181.574 60.272 183.558 64.432C185.606 68.592 186.63 73.456 186.63 79.024C186.63 84.592 185.606 89.488 183.558 93.712C181.574 97.872 178.822 101.072 175.302 103.312C171.846 105.552 167.974 106.672 163.686 106.672C160.038 106.672 156.87 105.968 154.182 104.56C151.494 103.088 149.414 101.072 147.942 98.512V106H129.126V34.96H147.942V59.632ZM167.526 79.024C167.526 75.504 166.566 72.784 164.646 70.864C162.79 68.88 160.486 67.888 157.734 67.888C154.982 67.888 152.646 68.88 150.726 70.864C148.87 72.848 147.942 75.568 147.942 79.024C147.942 82.544 148.87 85.296 150.726 87.28C152.646 89.264 154.982 90.256 157.734 90.256C160.486 90.256 162.79 89.264 164.646 87.28C166.566 85.232 167.526 82.48 167.526 79.024Z" fill="#343434"/>
<path d="M219.912 106.672C212.04 106.672 205.576 104.816 200.52 101.104C195.464 97.328 192.744 91.952 192.36 84.976H212.424C212.616 87.344 213.32 89.072 214.536 90.16C215.752 91.248 217.32 91.792 219.24 91.792C220.968 91.792 222.376 91.376 223.464 90.544C224.616 89.648 225.192 88.432 225.192 86.896C225.192 84.912 224.264 83.376 222.408 82.288C220.552 81.2 217.544 79.984 213.384 78.64C208.968 77.168 205.384 75.76 202.632 74.416C199.944 73.008 197.576 70.992 195.528 68.368C193.544 65.68 192.552 62.192 192.552 57.904C192.552 53.552 193.64 49.84 195.816 46.768C197.992 43.632 201 41.264 204.84 39.664C208.68 38.064 213.032 37.264 217.896 37.264C225.768 37.264 232.04 39.12 236.712 42.832C241.448 46.48 243.976 51.632 244.296 58.288H223.848C223.784 56.24 223.144 54.704 221.928 53.68C220.776 52.656 219.272 52.144 217.416 52.144C216.008 52.144 214.856 52.56 213.96 53.392C213.064 54.224 212.616 55.408 212.616 56.944C212.616 58.224 213.096 59.344 214.056 60.304C215.08 61.2 216.328 62 217.8 62.704C219.272 63.344 221.448 64.176 224.328 65.2C228.616 66.672 232.136 68.144 234.888 69.616C237.704 71.024 240.104 73.04 242.088 75.664C244.136 78.224 245.16 81.488 245.16 85.456C245.16 89.488 244.136 93.104 242.088 96.304C240.104 99.504 237.192 102.032 233.352 103.888C229.576 105.744 225.096 106.672 219.912 106.672ZM250.835 79.024C250.835 73.456 251.827 68.592 253.811 64.432C255.859 60.272 258.611 57.072 262.067 54.832C265.587 52.592 269.491 51.472 273.779 51.472C277.491 51.472 280.691 52.208 283.379 53.68C286.067 55.152 288.147 57.136 289.619 59.632V52.144H308.435V106H289.619V98.512C288.147 101.008 286.035 102.992 283.283 104.464C280.595 105.936 277.427 106.672 273.779 106.672C269.491 106.672 265.587 105.552 262.067 103.312C258.611 101.072 255.859 97.872 253.811 93.712C251.827 89.488 250.835 84.592 250.835 79.024ZM289.619 79.024C289.619 75.568 288.659 72.848 286.739 70.864C284.883 68.88 282.579 67.888 279.827 67.888C277.011 67.888 274.675 68.88 272.819 70.864C270.963 72.784 270.035 75.504 270.035 79.024C270.035 82.48 270.963 85.232 272.819 87.28C274.675 89.264 277.011 90.256 279.827 90.256C282.579 90.256 284.883 89.264 286.739 87.28C288.659 85.296 289.619 82.544 289.619 79.024ZM374.261 52.144V106H355.349V98.32C353.749 100.752 351.541 102.736 348.725 104.272C345.909 105.744 342.677 106.48 339.029 106.48C332.757 106.48 327.797 104.432 324.149 100.336C320.565 96.176 318.773 90.544 318.773 83.44V52.144H337.493V81.04C337.493 84.112 338.293 86.544 339.893 88.336C341.557 90.064 343.733 90.928 346.421 90.928C349.173 90.928 351.349 90.064 352.949 88.336C354.549 86.544 355.349 84.112 355.349 81.04V52.144H374.261ZM358.421 39.088L334.421 48.496V35.728L358.421 24.88V39.088ZM381.898 79.024C381.898 73.456 382.89 68.592 384.874 64.432C386.922 60.272 389.706 57.072 393.226 54.832C396.746 52.592 400.65 51.472 404.938 51.472C408.394 51.472 411.466 52.208 414.154 53.68C416.906 55.088 419.05 57.04 420.586 59.536V34.96H439.498V106H420.586V98.512C419.114 101.008 417.034 102.992 414.346 104.464C411.658 105.936 408.49 106.672 404.842 106.672C400.554 106.672 396.65 105.552 393.13 103.312C389.674 101.072 386.922 97.872 384.874 93.712C382.89 89.488 381.898 84.592 381.898 79.024ZM420.682 79.024C420.682 75.568 419.722 72.848 417.802 70.864C415.946 68.88 413.642 67.888 410.89 67.888C408.074 67.888 405.738 68.88 403.882 70.864C402.026 72.784 401.098 75.504 401.098 79.024C401.098 82.48 402.026 85.232 403.882 87.28C405.738 89.264 408.074 90.256 410.89 90.256C413.642 90.256 415.946 89.264 417.802 87.28C419.722 85.296 420.682 82.544 420.682 79.024ZM501.676 78.448C501.676 79.92 501.58 81.392 501.388 82.864H465.772C465.964 85.808 466.764 88.016 468.172 89.488C469.644 90.896 471.5 91.6 473.74 91.6C476.876 91.6 479.116 90.192 480.46 87.376H500.524C499.692 91.088 498.06 94.416 495.628 97.36C493.26 100.24 490.252 102.512 486.604 104.176C482.956 105.84 478.924 106.672 474.508 106.672C469.196 106.672 464.46 105.552 460.3 103.312C456.204 101.072 452.972 97.872 450.604 93.712C448.3 89.552 447.148 84.656 447.148 79.024C447.148 73.392 448.3 68.528 450.604 64.432C452.908 60.272 456.108 57.072 460.204 54.832C464.364 52.592 469.132 51.472 474.508 51.472C479.82 51.472 484.524 52.56 488.62 54.736C492.716 56.912 495.916 60.048 498.22 64.144C500.524 68.176 501.676 72.944 501.676 78.448ZM482.476 73.744C482.476 71.44 481.708 69.648 480.172 68.368C478.636 67.024 476.716 66.352 474.412 66.352C472.108 66.352 470.22 66.992 468.748 68.272C467.276 69.488 466.316 71.312 465.868 73.744H482.476Z" fill="#34FDD9"/>
</svg>
